<svg width="4" height="22" viewBox="0 0 4 22" fill="none" xmlns="http://www.w3.org/2000/svg">
<path d="M2 2.86274L2 2.87446L2 2.86274ZM2 11.0706L2 11.0823L2 11.0706ZM2 19.2785L2 19.2902L2 19.2785ZM2 4.03529C1.66848 4.03529 1.35054 3.91175 1.11612 3.69186C0.881696 3.47196 0.75 3.17372 0.75 2.86274C0.75 2.55176 0.881696 2.25351 1.11612 2.03362C1.35054 1.81372 1.66848 1.69019 2 1.69019C2.33152 1.69019 2.64946 1.81372 2.88388 2.03362C3.1183 2.25351 3.25 2.55176 3.25 2.86274C3.25 3.17372 3.1183 3.47196 2.88388 3.69186C2.64946 3.91175 2.33152 4.03529 2 4.03529V4.03529ZM2 12.2432C1.66848 12.2432 1.35054 12.1196 1.11612 11.8997C0.881696 11.6798 0.75 11.3816 0.75 11.0706C0.75 10.7596 0.881696 10.4614 1.11612 10.2415C1.35054 10.0216 1.66848 9.89805 2 9.89805C2.33152 9.89805 2.64946 10.0216 2.88388 10.2415C3.1183 10.4614 3.25 10.7596 3.25 11.0706C3.25 11.3816 3.1183 11.6798 2.88388 11.8997C2.64946 12.1196 2.33152 12.2432 2 12.2432V12.2432ZM2 20.451C1.66848 20.451 1.35054 20.3275 1.11612 20.1076C0.881695 19.8877 0.749999 19.5895 0.749999 19.2785C0.749999 18.9675 0.881696 18.6692 1.11612 18.4494C1.35054 18.2295 1.66848 18.1059 2 18.1059C2.33152 18.1059 2.64946 18.2295 2.88388 18.4494C3.1183 18.6692 3.25 18.9675 3.25 19.2785C3.25 19.5895 3.1183 19.8877 2.88388 20.1076C2.64946 20.3275 2.33152 20.451 2 20.451V20.451Z" stroke="white" stroke-width="1.5" stroke-linecap="round" stroke-linejoin="round"/>
</svg>
